<?xml version="1.0" encoding="UTF-8"?>
<svg width="400" height="120" viewBox="0 0 400 120" xmlns="http://www.w3.org/2000/svg">
  <!-- Purple left curve -->
  <path d="M 50 20 Q 45 10, 55 5 Q 65 0, 70 10 Q 75 20, 70 35 Q 65 50, 55 58 L 50 58 Q 40 50, 45 35 Q 50 25, 50 20 Z" fill="#7B3F99" stroke="#7B3F99" stroke-width="1"/>
  
  <!-- Purple right curve (mirrored) -->
  <path d="M 90 20 Q 95 10, 85 5 Q 75 0, 70 10 Q 65 20, 70 35 Q 75 50, 85 58 L 90 58 Q 100 50, 95 35 Q 90 25, 90 20 Z" fill="#7B3F99" stroke="#7B3F99" stroke-width="1"/>
  
  <!-- Green oval in center -->
  <ellipse cx="70" cy="35" rx="8" ry="22" fill="#6BAD3C"/>
  
  <!-- Text: NORTH LONDON -->
  <text x="110" y="38" font-family="Arial, Helvetica, sans-serif" font-size="22" font-weight="bold" fill="#6BAD3C" letter-spacing="1">NORTH</text>
  <text x="110" y="62" font-family="Arial, Helvetica, sans-serif" font-size="22" font-weight="bold" fill="#6BAD3C" letter-spacing="1">LONDON</text>
  
  <!-- Text: COMMUNITY CARE -->
  <text x="220" y="38" font-family="Arial, Helvetica, sans-serif" font-size="22" font-weight="bold" fill="#6BAD3C" letter-spacing="1">COMMUNITY</text>
  <text x="220" y="62" font-family="Arial, Helvetica, sans-serif" font-size="22" font-weight="bold" fill="#6BAD3C" letter-spacing="1">CARE</text>
  
  <!-- Text: AGENCY -->
  <text x="110" y="90" font-family="Arial, Helvetica, sans-serif" font-size="20" font-weight="bold" fill="#6BAD3C" letter-spacing="2">AGENCY</text>
</svg>